<svg width="320" height="190" viewBox="0 0 320 190" fill="none" xmlns="http://www.w3.org/2000/svg">
<path d="M255.299 77.6914L296.318 148.892H214.279L255.299 77.6914Z" fill="#BB2626"/>
<path d="M296.318 101.425L255.299 172.626L214.28 101.425L296.318 101.425Z" fill="#BB2626"/>
<path d="M278.98 84.0509L278.98 166.266L207.933 125.159L278.98 84.0509Z" fill="#BB2626"/>
<path d="M302.664 125.159L231.616 166.266L231.616 84.051L302.664 125.159Z" fill="#BB2626"/>
<path d="M64.703 17.374L105.722 88.5746H23.6836L64.703 17.374Z" fill="#FFC368"/>
<path d="M105.723 41.1077L64.7032 112.308L23.6838 41.1077L105.723 41.1077Z" fill="#FFC368"/>
<path d="M88.3846 23.7335L88.3846 105.949L17.337 64.8412L88.3846 23.7335Z" fill="#FFC368"/>
<path d="M112.068 64.8413L41.0207 105.949L41.0207 23.7336L112.068 64.8413Z" fill="#FFC368"/>
</svg>
